#!OML:ASF F:\VICON\USERDATA\INSTALL\rory3\rory3.ASF
:FULLY-SPECIFIED
:DEGREES
73
root -0.22078380787535423 17.701068506983933 39.880626390436746 3.5886039747622434 1.3675176325970981 1.0317135820404464
lfemur 7.32638121496797 -2.1882581982755096 -27.281635523658228
ltibia 30.43166935948745
lfoot -3.9965067755586277 -6.409662093160011
ltoes -26.513261180007113
rfemur -47.94961744683494 -5.546745008201775 22.18214358903325
rtibia 95.95262101511034
rfoot 5.512719695602138 -5.14854997198489
rtoes 2.2466568732517924
lowerback 14.495366041398775 -0.791359972996868 -2.4804333806975336
upperback -1.029980079281302 -1.4446721646631224 0.2052120962713624
thorax -9.23424301423825 -0.5602187698605966 2.1275736906087306
lowerneck -20.137928398106308 -3.340731968836441 -2.152648787648129
upperneck 17.251544515993967 -4.7033246570696035 3.356972060182493
head 8.916437295658593 -1.9631422263411211 0.8799744723675376
lclavicle -7.32053994626722e-16 -6.328020300789837e-16
lhumerus -33.867826928539415 -7.6923295024884455 93.77201282866665
lradius 113.18266813693678
lwrist 46.07928376874766
lhand -23.09432042801751 2.1637664980330893
lfingers 7.125020000000058
lthumb 3.3516829740368426 32.061549301524586
rclavicle -7.32053994626722e-16 -6.328020300789837e-16
rhumerus -60.36005301782865 10.861153828340885 -101.22397376739205
rradius 104.69413619658224
rwrist -28.3816638759724
rhand -19.716918444877145 -9.696963544981688
rfingers 7.125020000000058
rthumb 6.6120594096715415 9.470668826348923
74
root -0.235150988692016 17.88356806651255 39.94764703477726 3.7321447837021804 -0.10304091959274209 0.4729733161893628
lfemur 10.457221022293236 -1.9151432670162303 -26.88566424084124
ltibia 26.757383918808195
lfoot 3.682668176330117 -9.264739404012433
ltoes -27.578892208057503
rfemur -48.38809028821935 -3.9794692275996684 23.389297574955815
rtibia 84.77644042309166
rfoot 4.699425503150868 -4.745339546648282
rtoes -1.1882608217828254
lowerback 13.617485825177468 -1.018778776878308 -2.2740697934811607
upperback -1.3353306137223062 -1.665763479447484 0.5686372707703644
thorax -9.189747413920086 -0.6667258250463303 2.3138211698267046
lowerneck -19.96239437861863 -2.985498562991365 -2.3011705910199454
upperneck 17.760947296251828 -4.157047190344563 3.0871555437896347
head 9.031837803573811 -1.7310837483902437 0.8808488331549267
lclavicle -1.2375289999833767e-15 -1.0241927780629269e-15
lhumerus -33.94224296091551 -7.449711592072545 92.72705942747231
lradius 112.54832205656498
lwrist 45.72797095582886
lhand -23.083262519794992 1.9027617791415246
lfingers 7.125020000000056
lthumb 3.362329521936439 31.792451416255574
rclavicle -1.2375289999833767e-15 -1.0241927780629269e-15
rhumerus -62.605015035495896 9.975077127335126 -100.53140632304248
rradius 103.86675904547039
rwrist -28.8720425838586
rhand -19.50866562948188 -10.064068065991197
rfingers 7.125020000000056
rthumb 6.813321177143335 8.575079899150232
75
root -0.2402201545717208 18.044123042220054 40.35622971253784 3.8730675832057533 -1.450760272727814 0.10930641423835485
lfemur 13.023317712702685 -2.0240455100698913 -26.762827300672367
ltibia 24.032166183099143
lfoot 10.717785483547232 -11.187970658306789
ltoes -26.30868437404692
rfemur -47.84667384876831 -2.5320444330538705 24.283297835408966
rtibia 72.95712063083101
rfoot 4.479506701491026 -4.212715094144405
rtoes -4.8719326408251735
lowerback 12.854160458280493 -1.1643959470873133 -2.121579896863145
upperback -1.6392277745097856 -1.7996893091555015 0.8403066526038999
thorax -9.186014479629268 -0.7307461209965832 2.4483238691575586
lowerneck -19.658100916856164 -2.7251516555266906 -2.4825201718168044
upperneck 18.179914962020966 -3.734997681346333 2.879833179964148
head 9.099166660367981 -1.5599065166627364 0.8936935296780621
lclavicle -1.5873811103065785e-15 -1.2950842707720958e-15
lhumerus -34.25877066536165 -7.661361576287499 91.78494901369415
lradius 112.04026313736347
lwrist 44.75840359705837
lhand -22.986831335826064 1.8017288447051456
lfingers 7.125020000000055
lthumb 3.4554156188670255 31.68401686689935
rclavicle -1.5873811103065785e-15 -1.2950842707720958e-15
rhumerus -64.49697627430126 8.99437199475727 -99.7127808771798
rradius 103.32416397547316
rwrist -28.907122269393536
rhand -19.34480413826621 -10.336282096463076
rfingers 7.125020000000055
rthumb 6.971690140492321 7.870140917520435
76
root -0.23945460414152375 18.17782786947154 41.118926128115405 4.032367750709434 -2.4894512994454727 0.0014220801367765823
lfemur 15.055072046235729 -2.5364906347805536 -26.935861458673863
ltibia 22.731552537917672
lfoot 16.436329379277556 -12.22393686414038
ltoes -23.307145529546062
rfemur -46.576681016941336 -1.3769583476647047 24.880095454732043
rtibia 61.20232530262742
rfoot 4.6662811800343444 -3.7739310017814867
rtoes -8.589913404082555
lowerback 12.258791801975203 -1.2756883686706453 -2.0619159699747884
upperback -1.9059910471125316 -1.9181495940441278 1.0128486630331028
thorax -9.198131334700424 -0.784255346748605 2.5775936565645794
lowerneck -19.275319012222813 -2.554755220630008 -2.654089316638273
upperneck 18.435121970519663 -3.44036562761544 2.7416718013612402
head 9.101589443151802 -1.4478842022213039 0.9131798730334862
lclavicle -1.7101277199772678e-15 -1.3901273208494411e-15
lhumerus -34.56744003681365 -8.189287101482147 91.03789239073214
lradius 111.97528127007722
lwrist 43.55096029532092
lhand -22.84898864940731 1.78810168860306
lfingers 7.125020000000055
lthumb 3.5884881526932384 31.665200256645484
rclavicle -1.7101277199772678e-15 -1.3901273208494411e-15
rhumerus -66.04183870750018 8.113534380664921 -98.85381274106045
rradius 103.40869993162573
rwrist -28.602382634796147
rhand -19.21578966185039 -10.4946108275027
rfingers 7.125020000000055
rthumb 7.096374394558265 7.4379660909518295
77
root -0.23437743563683178 18.27620878836608 41.96952408353133 4.155192833842398 -3.149354302766761 0.11816916875945704
lfemur 16.51656582222496 -3.369605866854747 -27.381304496240723
ltibia 23.04215654918433
lfoot 20.413260976274934 -12.74756673829259
ltoes -19.616473664524992
rfemur -44.92319539662371 -0.618151967332115 25.202889590790544
rtibia 50.152386522243596
rfoot 4.961802987704202 -3.6380131002563547
rtoes -12.141076654128781
lowerback 11.834768319211122 -1.398560027393803 -2.1231695835173454
upperback -2.105043956253346 -2.083456943572468 1.0925440333828496
thorax -9.202555889374862 -0.8564807305813064 2.7169785739834755
lowerneck -18.916281214033997 -2.4663893200226736 -2.79189660871188
upperneck 18.48533607771556 -3.2680982540974273 2.6551041942986497
head 9.042803420178098 -1.389708520877991 0.9299817417508989
lclavicle -1.716514105175903e-15 -1.3950723150434055e-15
lhumerus -34.839431201551726 -8.895856650312073 90.51274878024464
lradius 112.1194675259849
lwrist 42.359831676133666
lhand -22.752921327001964 1.747195126387851
lfingers 7.125020000000055
lthumb 3.681227285155164 31.622977523883613
rclavicle -1.716514105175903e-15 -1.3950723150434055e-15
rhumerus -67.28941249942811 7.302034079575607 -98.04140758215121
rradius 103.85626773632627
rwrist -28.100167860566106
rhand -19.118371744800903 -10.385329270433513
rfingers 7.125020000000055
rthumb 7.190533086300982 7.202862031131941
78
root -0.22013811228505847 18.33431941565917 42.626466106187905 4.192682550551388 -3.445581438163223 0.38517379658806083
lfemur 17.393016734594635 -4.349452210238797 -27.971065379294668
ltibia 24.930427081957507
lfoot 22.645967197301058 -13.149461736782333
ltoes -16.14253536832527
rfemur -43.168681005286665 -0.27198804255773856 25.33229277959523
rtibia 40.71352995167908
rfoot 5.2923473633306575 -3.829715940307157
rtoes -15.0613012558145
lowerback 11.581074894919121 -1.541667384867556 -2.27250103156703
upperback -2.2100021333228725 -2.2987520332659734 1.098058144742823
thorax -9.174926849480665 -0.950979458469778 2.855802678165866
lowerneck -18.66306571614912 -2.442165927444484 -2.894277323415274
upperneck 18.34114092008325 -3.19350844507838 2.6102720905110206
head 8.941216990826172 -1.3721066944356362 0.9427566182596049
lclavicle -1.6689665136073302e-15 -1.3582560765321407e-15
lhumerus -35.06943014942193 -9.60988089290374 90.20230446914216
lradius 112.14193492855225
lwrist 41.32309410653539
lhand -22.743288254406643 1.7082897961422532
lfingers 7.125020000000055
lthumb 3.690522318390517 31.58718155319649
rclavicle -1.6689665136073302e-15 -1.3582560765321407e-15
rhumerus -68.18781483999977 6.476796481175464 -97.27842764356132
rradius 104.31535583006166
rwrist -27.47636070723879
rhand -19.04467188384202 -9.768868430898817
rfingers 7.125020000000055
rthumb 7.261786339680203 7.079555370562994
